<svg id="eccac6c2-bcd2-497d-9c96-5d74948446b2" data-name="Livello 1" xmlns="http://www.w3.org/2000/svg" viewBox="0 0 595.28 841.89"><defs><style>.bbb1ab5d-28c2-4ec1-9407-9db931dff858{fill:#1d1d1b;}.a1f02b9a-004d-4c02-a658-cbc6d35166e9{fill:none;stroke:#1d1d1b;stroke-miterlimit:10;stroke-width:2px;}</style></defs><title>Logocode</title><path class="bbb1ab5d-28c2-4ec1-9407-9db931dff858" d="M150.18,443.06a26.26,26.26,0,0,1-9.3-35.48,26,26,0,0,1,9.3-9.47A24.43,24.43,0,0,1,163,394.6a24.83,24.83,0,0,1,10.45,2.24,25.91,25.91,0,0,1,8.42,6.15,1,1,0,0,1,.29.73,1,1,0,0,1-.36.79L176.57,409a1.07,1.07,0,0,1-.79.37.9.9,0,0,1-.73-.37,16.46,16.46,0,0,0-5.46-3.94,16,16,0,0,0-6.61-1.41,15.78,15.78,0,0,0-8.28,2.28,16.89,16.89,0,0,0-6,6.18,17.11,17.11,0,0,0,0,16.93,16.89,16.89,0,0,0,6,6.18,16.19,16.19,0,0,0,14.57,1,16.52,16.52,0,0,0,5.28-3.58,2,2,0,0,1,1.37-.57,1.36,1.36,0,0,1,1,.36l1.38,1.15,2.89,2.61a1.6,1.6,0,0,1,.73,1.37,1.19,1.19,0,0,1-.37.87,25.11,25.11,0,0,1-18.58,8.1A24.67,24.67,0,0,1,150.18,443.06Z"/><path class="bbb1ab5d-28c2-4ec1-9407-9db931dff858" d="M219,445.55a1.5,1.5,0,0,1-.58-.76l-3.62-13.45a2.21,2.21,0,0,0-.79-1.08,2,2,0,0,0-1.23-.44H201.89a1.13,1.13,0,0,1-.84-.32,1.07,1.07,0,0,1-.32-.76v-5.57a1.22,1.22,0,0,1,.32-.8,1.09,1.09,0,0,1,.84-.36h8.67a1.27,1.27,0,0,0,1.05-.47,1.07,1.07,0,0,0,.18-1.12l-4-14.75a1.72,1.72,0,0,0-.72-1,2,2,0,0,0-1.23-.44h-.51a1.91,1.91,0,0,0-1.15.44,1.78,1.78,0,0,0-.73,1l-2.67,9.69a1.13,1.13,0,0,1-.54.65,1.18,1.18,0,0,1-.91.07l-6.8-1.66a1,1,0,0,1-.68-.51,1,1,0,0,1-.11-.86l4.55-16.71a1.75,1.75,0,0,1,.62-.8,1.48,1.48,0,0,1,.9-.36h15.55a1.75,1.75,0,0,1,.94.33,1.42,1.42,0,0,1,.65.76l13.31,48.6V445a.77.77,0,0,1-.87.87H220A1.5,1.5,0,0,1,219,445.55Z"/><path class="bbb1ab5d-28c2-4ec1-9407-9db931dff858" d="M243.32,444.79V405.74a1.54,1.54,0,0,0-.5-1.19,1.72,1.72,0,0,0-1.23-.47h-4.12a.91.91,0,0,1-.65-.29,1,1,0,0,1-.29-.73v-6.72a.94.94,0,0,1,.29-.72.87.87,0,0,1,.65-.29h31.6a.87.87,0,0,1,.65.29,1,1,0,0,1,.29.72v6.72a1,1,0,0,1-.29.73.91.91,0,0,1-.65.29H255.55a1.67,1.67,0,0,0-1.23.5,1.6,1.6,0,0,0-.51,1.16v39.05a.88.88,0,0,1-.29.69,1,1,0,0,1-.65.25h-8.6A.84.84,0,0,1,243.32,444.79Z"/><path class="bbb1ab5d-28c2-4ec1-9407-9db931dff858" d="M305.59,445.55a1.56,1.56,0,0,1-.58-.76l-3.61-13.45a2.23,2.23,0,0,0-.8-1.08,2,2,0,0,0-1.23-.44H288.45a1.12,1.12,0,0,1-.83-.32,1,1,0,0,1-.32-.76v-5.57a1.17,1.17,0,0,1,.32-.8,1.08,1.08,0,0,1,.83-.36h8.68a1.27,1.27,0,0,0,1.05-.47,1.07,1.07,0,0,0,.18-1.12l-4.05-14.75a1.81,1.81,0,0,0-.72-1,2,2,0,0,0-1.23-.44h-.51a1.91,1.91,0,0,0-1.15.44,1.78,1.78,0,0,0-.73,1l-2.67,9.69a1.11,1.11,0,0,1-.55.65,1.15,1.15,0,0,1-.9.07l-6.8-1.66a1,1,0,0,1-.69-.51,1,1,0,0,1-.1-.86l4.55-16.71a1.75,1.75,0,0,1,.62-.8,1.48,1.48,0,0,1,.9-.36h15.55a1.75,1.75,0,0,1,.94.33,1.46,1.46,0,0,1,.65.76l13.31,48.6V445a.77.77,0,0,1-.87.87h-7.38A1.54,1.54,0,0,1,305.59,445.55Z"/><path class="bbb1ab5d-28c2-4ec1-9407-9db931dff858" d="M349.85,445q-2.82-4.41-9.22-14.32T331,415.58c-.29-.34-.48-.51-.58-.51s-.16.1-.18.29a2.93,2.93,0,0,0,0,.43l.15,8.54a1.3,1.3,0,0,1-.36.9,1.22,1.22,0,0,1-.94.4h-7a1.41,1.41,0,0,1-1-.36,1.23,1.23,0,0,1-.39-.94V396.7a1.33,1.33,0,0,1,1.37-1.37h7.09a1.12,1.12,0,0,1,.87.43l17.5,29.15q.64,1.23,1.08,1.23t.36-1.23l-.07-28.21a1.32,1.32,0,0,1,.4-1,1.25,1.25,0,0,1,.9-.39h7.67a1.33,1.33,0,0,1,1.37,1.37v47.73a1.21,1.21,0,0,1-.39.94,1.41,1.41,0,0,1-1,.36H351A1.57,1.57,0,0,1,349.85,445Z"/><path class="bbb1ab5d-28c2-4ec1-9407-9db931dff858" d="M373.32,445.48a1.26,1.26,0,0,1-.4-.9v-48a1.28,1.28,0,0,1,.44-1,1.35,1.35,0,0,1,.94-.4h7.23a1.21,1.21,0,0,1,.9.4,1.32,1.32,0,0,1,.4,1v48a1.3,1.3,0,0,1-.36.9,1.19,1.19,0,0,1-.94.4H374.3A1.32,1.32,0,0,1,373.32,445.48Z"/><path class="bbb1ab5d-28c2-4ec1-9407-9db931dff858" d="M422.54,445.55a1.5,1.5,0,0,1-.58-.76l-3.62-13.45a2.21,2.21,0,0,0-.79-1.08,2,2,0,0,0-1.23-.44H405.4a1.13,1.13,0,0,1-.84-.32,1.07,1.07,0,0,1-.32-.76v-5.57a1.22,1.22,0,0,1,.32-.8,1.09,1.09,0,0,1,.84-.36h8.67a1.27,1.27,0,0,0,1.05-.47,1.07,1.07,0,0,0,.18-1.12l-4.05-14.75a1.72,1.72,0,0,0-.72-1,2,2,0,0,0-1.23-.44h-.51a1.91,1.91,0,0,0-1.15.44,1.78,1.78,0,0,0-.73,1l-2.67,9.69a1.13,1.13,0,0,1-.54.65,1.18,1.18,0,0,1-.91.07l-6.8-1.66a1,1,0,0,1-.68-.51,1,1,0,0,1-.11-.86l4.55-16.71a1.82,1.82,0,0,1,.62-.8,1.48,1.48,0,0,1,.9-.36h15.55a1.75,1.75,0,0,1,.94.33,1.42,1.42,0,0,1,.65.76l13.31,48.6V445a.77.77,0,0,1-.87.87h-7.37A1.5,1.5,0,0,1,422.54,445.55Z"/><path class="bbb1ab5d-28c2-4ec1-9407-9db931dff858" d="M144.32,502.8c-.15,0-.27-.16-.36-.5l-6.08-31.24a1.87,1.87,0,0,1-.07-.58c0-.73.29-1.09.87-1.09h7.23a1.22,1.22,0,0,1,1.37.94l3,17a2.44,2.44,0,0,1,.07.72,5.69,5.69,0,0,1-.36,2.17l-2.57,5.86q-1.77,4.05-2.71,6.29C144.66,502.66,144.51,502.8,144.32,502.8Zm3.58,17a.93.93,0,0,1-.25-.69,2.47,2.47,0,0,1,.21-.94q1.59-4.34,5.17-14.14t6-16.81a2.64,2.64,0,0,1,.58-.94,1.55,1.55,0,0,1,1.16-.37H168a2.26,2.26,0,0,1,2.17,1.31q4.91,13.67,5.42,15.26c.24.62.41.94.51.94s.29-.34.43-1q.94-5.78,2.6-16.52t2.39-15.52a1.27,1.27,0,0,1,.47-.79,1.59,1.59,0,0,1,.91-.22h7.3a.7.7,0,0,1,.65.51,1.8,1.8,0,0,1,.07,1.16l-8.68,48.09a1.16,1.16,0,0,1-1.3.94H173.1a1.86,1.86,0,0,1-.9-.18,1.08,1.08,0,0,1-.47-.76q-1-3-3.29-9.76T165,498.83c-.05-.24-.13-.36-.25-.36s-.23.12-.33.36l-6.72,20.32a1.23,1.23,0,0,1-1.38.94h-7.81A.82.82,0,0,1,147.9,519.84Z"/><path class="bbb1ab5d-28c2-4ec1-9407-9db931dff858" d="M202.14,478a1.3,1.3,0,0,1-.4-1v-6.22a1.19,1.19,0,0,1,.4-.94,1.3,1.3,0,0,1,.9-.37H236.6a1.36,1.36,0,0,1,1,.4,1.27,1.27,0,0,1,.39.91V477a1.4,1.4,0,0,1-.39.94,1.28,1.28,0,0,1-1,.43H203A1.21,1.21,0,0,1,202.14,478Zm0,41.73a1.21,1.21,0,0,1-.4-.9V485.38a1.22,1.22,0,0,1,.4-.95,1.29,1.29,0,0,1,.9-.36h6.15a1.27,1.27,0,0,1,.94.36,1.31,1.31,0,0,1,.36.95v5.2c0,.92.63,1.38,1.88,1.38H230.6a1.27,1.27,0,0,1,.87.32,1.08,1.08,0,0,1,.36.83v6.22a1.05,1.05,0,0,1-.36.83,1.28,1.28,0,0,1-.87.33H212.16c-1.11,0-1.67.51-1.67,1.52v7.88a1.52,1.52,0,0,0,1.38,1.38h24.87a1.27,1.27,0,0,1,.94.36,1.24,1.24,0,0,1,.37.94v6.22a1.26,1.26,0,0,1-.37.9,1.19,1.19,0,0,1-.94.4H203A1.21,1.21,0,0,1,202.14,519.69Z"/><path class="bbb1ab5d-28c2-4ec1-9407-9db931dff858" d="M275.51,519.76a1.56,1.56,0,0,1-.58-.76l-3.62-13.45a2.21,2.21,0,0,0-.79-1.08,2,2,0,0,0-1.23-.44H258.37a1.09,1.09,0,0,1-.83-.32,1,1,0,0,1-.33-.76v-5.57a1.18,1.18,0,0,1,.33-.8,1.05,1.05,0,0,1,.83-.36h8.68a1.3,1.3,0,0,0,1.05-.47,1.11,1.11,0,0,0,.18-1.12l-4-14.75a1.81,1.81,0,0,0-.73-1,2,2,0,0,0-1.23-.44h-.5a1.94,1.94,0,0,0-1.16.44,1.75,1.75,0,0,0-.72,1l-2.68,9.69a1.13,1.13,0,0,1-1.45.72L249,488.63a1,1,0,0,1-.69-.51,1,1,0,0,1-.11-.86l4.56-16.71a1.72,1.72,0,0,1,.61-.8,1.51,1.51,0,0,1,.91-.36h15.54a1.73,1.73,0,0,1,.94.33,1.48,1.48,0,0,1,.66.76l13.3,48.6v.14a.77.77,0,0,1-.87.87h-7.37A1.52,1.52,0,0,1,275.51,519.76Z"/><path class="bbb1ab5d-28c2-4ec1-9407-9db931dff858" d="M299.81,519V480a1.54,1.54,0,0,0-.51-1.19,1.72,1.72,0,0,0-1.23-.47H294a.91.91,0,0,1-.65-.29,1,1,0,0,1-.29-.72v-6.73a1,1,0,0,1,.29-.72.87.87,0,0,1,.65-.29h31.6a.87.87,0,0,1,.65.29.94.94,0,0,1,.29.72v6.73a1,1,0,0,1-.29.72.91.91,0,0,1-.65.29H312a1.71,1.71,0,0,0-1.23.5,1.6,1.6,0,0,0-.51,1.16V519a.88.88,0,0,1-.28.69,1,1,0,0,1-.66.26h-8.6A.84.84,0,0,1,299.81,519Z"/><path class="bbb1ab5d-28c2-4ec1-9407-9db931dff858" d="M338.61,503.78a1,1,0,0,1-.33-.76V470.48a1.13,1.13,0,0,1,1.09-1.09h7.52a1,1,0,0,1,.76.33,1,1,0,0,1,.32.76V503a1,1,0,0,1-.32.76,1,1,0,0,1-.76.33h-7.52A1,1,0,0,1,338.61,503.78Zm27,15.91a1.24,1.24,0,0,1-.39-.9V501.36a1.24,1.24,0,0,0-.37-.94,1.27,1.27,0,0,0-.94-.36h-9a1.26,1.26,0,0,1-.9-.4,1.25,1.25,0,0,1-.4-.91v-6.14a1.19,1.19,0,0,1,.4-.94,1.3,1.3,0,0,1,.9-.36h9a1.22,1.22,0,0,0,.94-.4,1.29,1.29,0,0,0,.37-.91V470.69a1.27,1.27,0,0,1,.39-.9,1.29,1.29,0,0,1,.91-.4h7.37a1.37,1.37,0,0,1,1.31,1.3v48.1a1.26,1.26,0,0,1-.37.9,1.19,1.19,0,0,1-.94.4h-7.37A1.25,1.25,0,0,1,365.58,519.69Z"/><path class="bbb1ab5d-28c2-4ec1-9407-9db931dff858" d="M388.51,478a1.3,1.3,0,0,1-.4-1v-6.22a1.19,1.19,0,0,1,.4-.94,1.3,1.3,0,0,1,.9-.37H423a1.38,1.38,0,0,1,1,.4,1.27,1.27,0,0,1,.39.91V477a1.4,1.4,0,0,1-.39.94,1.29,1.29,0,0,1-1,.43H389.41A1.21,1.21,0,0,1,388.51,478Zm0,41.73a1.21,1.21,0,0,1-.4-.9V485.38a1.22,1.22,0,0,1,.4-.95,1.29,1.29,0,0,1,.9-.36h6.15a1.27,1.27,0,0,1,.94.36,1.31,1.31,0,0,1,.36.95v5.2c0,.92.63,1.38,1.88,1.38H417a1.23,1.23,0,0,1,.86.32,1.06,1.06,0,0,1,.37.83v6.22a1,1,0,0,1-.37.83,1.23,1.23,0,0,1-.86.33H398.52c-1.11,0-1.66.51-1.66,1.52v7.88a1.31,1.31,0,0,0,.44.94,1.3,1.3,0,0,0,.94.44h24.87a1.25,1.25,0,0,1,1.31,1.3v6.22a1.3,1.3,0,0,1-.37.9,1.19,1.19,0,0,1-.94.4h-33.7A1.21,1.21,0,0,1,388.51,519.69Z"/><path class="bbb1ab5d-28c2-4ec1-9407-9db931dff858" d="M437,519.73a1.2,1.2,0,0,1-.4-.94V493.55a1.32,1.32,0,0,1,.4-1,1.34,1.34,0,0,1,1-.4h15a6.69,6.69,0,0,0,4.88-1.95,6.33,6.33,0,0,0,2-4.7,6.41,6.41,0,0,0-2-4.77,6.66,6.66,0,0,0-4.88-2h-6.07a1.8,1.8,0,0,0-1.34.55,1.73,1.73,0,0,0-.54,1.26v1.81a1.82,1.82,0,0,1-.51,1.27,1.7,1.7,0,0,1-1.3.54h-4.77a1.73,1.73,0,0,1-1.27-.54,1.77,1.77,0,0,1-.54-1.27V470.77a1.32,1.32,0,0,1,.4-1,1.34,1.34,0,0,1,1-.4h15a16.43,16.43,0,0,1,14.21,8,15.8,15.8,0,0,1,.51,15.19,16,16,0,0,1-4.67,5.57.86.86,0,0,0-.43.72,2.92,2.92,0,0,0,.07.72l8.39,18.73a2,2,0,0,1,.29.94c0,.54-.34.8-1,.8h-5.93a3.88,3.88,0,0,1-1.19-.14,1.34,1.34,0,0,1-.69-.73L455,502.3a1.17,1.17,0,0,0-.58-.58,4.56,4.56,0,0,0-1.45-.14h-6.15a2.84,2.84,0,0,0-1.33.25,1.07,1.07,0,0,0-.47,1.05v15.91a1.24,1.24,0,0,1-.4.94,1.41,1.41,0,0,1-1,.36H438A1.39,1.39,0,0,1,437,519.73Z"/><path class="bbb1ab5d-28c2-4ec1-9407-9db931dff858" d="M164.5,594a1.48,1.48,0,0,1-.58-.75l-3.62-13.46a2.21,2.21,0,0,0-.79-1.08,2,2,0,0,0-1.23-.43H147.36a1.14,1.14,0,0,1-.84-.33,1.07,1.07,0,0,1-.32-.76v-5.57a1.17,1.17,0,0,1,.32-.79,1.1,1.1,0,0,1,.84-.37H156a1.27,1.27,0,0,0,1.05-.47,1.07,1.07,0,0,0,.18-1.12l-4-14.75a1.75,1.75,0,0,0-.72-1,2,2,0,0,0-1.23-.44h-.51a1.91,1.91,0,0,0-1.15.44,1.81,1.81,0,0,0-.73,1l-2.67,9.69a1.13,1.13,0,0,1-1.45.72l-6.8-1.66a1,1,0,0,1-.68-.51,1,1,0,0,1-.11-.86l4.55-16.71a1.75,1.75,0,0,1,.62-.8,1.48,1.48,0,0,1,.9-.36h15.55a1.75,1.75,0,0,1,.94.33,1.45,1.45,0,0,1,.65.76l13.31,48.6v.14a.77.77,0,0,1-.87.87h-7.37A1.5,1.5,0,0,1,164.5,594Z"/><path class="bbb1ab5d-28c2-4ec1-9407-9db931dff858" d="M184.35,593.9a1.21,1.21,0,0,1-.4-.9V567.76a1.32,1.32,0,0,1,.4-1,1.25,1.25,0,0,1,.9-.4h16a6.53,6.53,0,0,0,4.74-2,6.33,6.33,0,0,0,2-4.7,6.41,6.41,0,0,0-2-4.77,6.54,6.54,0,0,0-4.74-2h-16a1.24,1.24,0,0,1-.9-.39,1.32,1.32,0,0,1-.4-1V545a1.32,1.32,0,0,1,.4-1,1.25,1.25,0,0,1,.9-.4h16a15.61,15.61,0,0,1,8,2.17,16.17,16.17,0,0,1,5.86,5.9,15.7,15.7,0,0,1,2.17,8.06,15.54,15.54,0,0,1-2.17,8,16.3,16.3,0,0,1-5.86,5.86,15.61,15.61,0,0,1-8,2.17h-7.66a2,2,0,0,0-1.09.21,1.07,1.07,0,0,0-.29.87V593a1.23,1.23,0,0,1-.39.94,1.43,1.43,0,0,1-1,.36h-5.57A1.21,1.21,0,0,1,184.35,593.9Z"/><path class="bbb1ab5d-28c2-4ec1-9407-9db931dff858" d="M228.53,593.9a1.24,1.24,0,0,1-.39-.9V567.76a1.35,1.35,0,0,1,.39-1,1.29,1.29,0,0,1,.91-.4h16a6.55,6.55,0,0,0,4.74-2,6.37,6.37,0,0,0,2-4.7,6.45,6.45,0,0,0-2-4.77,6.56,6.56,0,0,0-4.74-2h-16a1.27,1.27,0,0,1-.91-.39,1.35,1.35,0,0,1-.39-1V545a1.35,1.35,0,0,1,.39-1,1.29,1.29,0,0,1,.91-.4h16a15.63,15.63,0,0,1,8,2.17,16.17,16.17,0,0,1,5.86,5.9,15.79,15.79,0,0,1,2.17,8.06,15.63,15.63,0,0,1-2.17,8,16.3,16.3,0,0,1-5.86,5.86,15.63,15.63,0,0,1-8,2.17h-7.66a2,2,0,0,0-1.09.21,1.07,1.07,0,0,0-.29.87V593a1.2,1.2,0,0,1-.4.94,1.39,1.39,0,0,1-1,.36h-5.57A1.25,1.25,0,0,1,228.53,593.9Z"/><polyline class="a1f02b9a-004d-4c02-a658-cbc6d35166e9" points="109.04 402.79 152.57 355.73 163.16 332.2 205.16 315.73 218.45 289.85 250.2 269.85 259.69 273.57 277.98 269.85 287.95 272.7 321.33 298.7 334.46 319.49 377.81 359.35 499.78 407.87"/></svg>