<svg id="a418eb33-df55-4a90-86a1-1bae3f392f0d" data-name="Livello 1" xmlns="http://www.w3.org/2000/svg" viewBox="0 0 778.18 597.39"><defs><style>.ef0210f9-69a5-4b00-9178-5baa158ef2d3{fill:#1d1d1b;}.b5a21f92-d4f9-450a-bfd3-490ff8c6f221{fill:#fff;}.b4b444fe-8462-4a38-b6c1-a595ce961acd{fill:none;stroke:#fff;stroke-miterlimit:10;stroke-width:2px;}</style></defs><title>Logocode</title><rect class="ef0210f9-69a5-4b00-9178-5baa158ef2d3" x="91.45" y="88.22" width="595.28" height="420.94"/><path class="b5a21f92-d4f9-450a-bfd3-490ff8c6f221" d="M254.89,297.79a26.22,26.22,0,0,1-9.29-35.47,25.83,25.83,0,0,1,9.29-9.48,25.23,25.23,0,0,1,23.25-1.26,25.88,25.88,0,0,1,8.43,6.14,1,1,0,0,1,.28.73,1,1,0,0,1-.36.79l-5.2,4.49a1.13,1.13,0,0,1-.8.36.88.88,0,0,1-.72-.36,16.52,16.52,0,0,0-5.46-3.94,16.16,16.16,0,0,0-14.9.86,16.84,16.84,0,0,0-6,6.19,17.1,17.1,0,0,0,0,16.92,16.89,16.89,0,0,0,6,6.18A16.24,16.24,0,0,0,274,291a16.74,16.74,0,0,0,5.28-3.58,2,2,0,0,1,1.37-.58,1.38,1.38,0,0,1,1,.36l1.37,1.16,2.89,2.6a1.58,1.58,0,0,1,.73,1.37,1.19,1.19,0,0,1-.36.87,25.16,25.16,0,0,1-18.59,8.1A24.67,24.67,0,0,1,254.89,297.79Z"/><path class="b5a21f92-d4f9-450a-bfd3-490ff8c6f221" d="M323.74,300.28a1.58,1.58,0,0,1-.58-.75l-3.62-13.46a2.21,2.21,0,0,0-.79-1.08,2,2,0,0,0-1.23-.44H306.6a1.09,1.09,0,0,1-.83-.32,1,1,0,0,1-.33-.76V277.9a1.14,1.14,0,0,1,.33-.79,1.06,1.06,0,0,1,.83-.37h8.68a1.3,1.3,0,0,0,1.05-.47,1.11,1.11,0,0,0,.18-1.12l-4.05-14.75a1.81,1.81,0,0,0-.73-1,2,2,0,0,0-1.23-.44H310a1.94,1.94,0,0,0-1.16.44,1.75,1.75,0,0,0-.72,1l-2.68,9.69a1.13,1.13,0,0,1-1.45.72l-6.79-1.66a1.1,1.1,0,0,1-.8-1.37L301,251.07a1.72,1.72,0,0,1,.61-.8,1.51,1.51,0,0,1,.91-.36H318a1.73,1.73,0,0,1,.94.33,1.52,1.52,0,0,1,.66.76l13.3,48.6v.14a.77.77,0,0,1-.87.87h-7.37A1.52,1.52,0,0,1,323.74,300.28Z"/><path class="b5a21f92-d4f9-450a-bfd3-490ff8c6f221" d="M348,299.53V260.47a1.54,1.54,0,0,0-.51-1.19,1.77,1.77,0,0,0-1.23-.47h-4.12a.91.91,0,0,1-.65-.29,1,1,0,0,1-.29-.72v-6.73a1,1,0,0,1,.29-.72.87.87,0,0,1,.65-.29h31.6a.87.87,0,0,1,.65.29.94.94,0,0,1,.29.72v6.73a.94.94,0,0,1-.29.72.91.91,0,0,1-.65.29H360.26a1.71,1.71,0,0,0-1.23.5,1.6,1.6,0,0,0-.51,1.16v39.06a.84.84,0,0,1-.29.68,1,1,0,0,1-.65.26H349A.83.83,0,0,1,348,299.53Z"/><path class="b5a21f92-d4f9-450a-bfd3-490ff8c6f221" d="M410.31,300.28a1.52,1.52,0,0,1-.58-.75l-3.62-13.46a2.21,2.21,0,0,0-.79-1.08,2,2,0,0,0-1.23-.44H393.17a1.13,1.13,0,0,1-.84-.32,1.07,1.07,0,0,1-.32-.76V277.9a1.17,1.17,0,0,1,.32-.79,1.1,1.1,0,0,1,.84-.37h8.67a1.27,1.27,0,0,0,1.05-.47,1.07,1.07,0,0,0,.18-1.12L399,260.4a1.75,1.75,0,0,0-.72-1,2,2,0,0,0-1.23-.44h-.51a1.91,1.91,0,0,0-1.15.44,1.81,1.81,0,0,0-.73,1L392,270.09a1.13,1.13,0,0,1-1.45.72l-6.8-1.66a1,1,0,0,1-.68-.51,1,1,0,0,1-.11-.86l4.55-16.71a1.82,1.82,0,0,1,.62-.8,1.48,1.48,0,0,1,.9-.36h15.55a1.75,1.75,0,0,1,.94.33,1.45,1.45,0,0,1,.65.76l13.31,48.6v.14a.77.77,0,0,1-.87.87h-7.37A1.52,1.52,0,0,1,410.31,300.28Z"/><path class="b5a21f92-d4f9-450a-bfd3-490ff8c6f221" d="M454.57,299.74q-2.82-4.41-9.22-14.32t-9.66-15.11c-.29-.34-.48-.51-.58-.51s-.15.1-.18.29,0,.34,0,.43l.14,8.54a1.29,1.29,0,0,1-.36.9,1.2,1.2,0,0,1-.94.4h-7a1.39,1.39,0,0,1-1-.36,1.2,1.2,0,0,1-.4-.94V251.43a1.37,1.37,0,0,1,1.37-1.37h7.09a1.09,1.09,0,0,1,.87.43l17.5,29.15c.43.82.8,1.23,1.08,1.23s.37-.41.37-1.23l-.08-28.21a1.34,1.34,0,0,1,.4-1,1.25,1.25,0,0,1,.91-.4h7.66a1.32,1.32,0,0,1,1,.4,1.34,1.34,0,0,1,.4,1v47.73a1.22,1.22,0,0,1-.4.94,1.38,1.38,0,0,1-1,.37h-6.8A1.57,1.57,0,0,1,454.57,299.74Z"/><path class="b5a21f92-d4f9-450a-bfd3-490ff8c6f221" d="M478,300.21a1.24,1.24,0,0,1-.39-.9v-48a1.28,1.28,0,0,1,.43-1,1.39,1.39,0,0,1,.94-.4h7.23a1.29,1.29,0,0,1,.91.4,1.35,1.35,0,0,1,.39,1v48a1.29,1.29,0,0,1-.36.9,1.19,1.19,0,0,1-.94.4H479A1.32,1.32,0,0,1,478,300.21Z"/><path class="b5a21f92-d4f9-450a-bfd3-490ff8c6f221" d="M527.25,300.28a1.58,1.58,0,0,1-.58-.75l-3.62-13.46a2.21,2.21,0,0,0-.79-1.08,2,2,0,0,0-1.23-.44H510.11a1.09,1.09,0,0,1-.83-.32,1,1,0,0,1-.33-.76V277.9a1.14,1.14,0,0,1,.33-.79,1.06,1.06,0,0,1,.83-.37h8.68a1.3,1.3,0,0,0,1.05-.47,1.11,1.11,0,0,0,.18-1.12l-4-14.75a1.81,1.81,0,0,0-.73-1A2,2,0,0,0,514,259h-.5a1.94,1.94,0,0,0-1.16.44,1.75,1.75,0,0,0-.72,1L509,270.09a1.13,1.13,0,0,1-1.45.72l-6.79-1.66a1.1,1.1,0,0,1-.8-1.37l4.56-16.71a1.72,1.72,0,0,1,.61-.8,1.51,1.51,0,0,1,.91-.36h15.55a1.72,1.72,0,0,1,.93.33,1.52,1.52,0,0,1,.66.76l13.3,48.6v.14a.77.77,0,0,1-.86.87h-7.38A1.52,1.52,0,0,1,527.25,300.28Z"/><path class="b5a21f92-d4f9-450a-bfd3-490ff8c6f221" d="M249,357.54q-.21,0-.36-.51l-6.08-31.24a2.24,2.24,0,0,1-.07-.58c0-.72.29-1.09.87-1.09h7.23a1.24,1.24,0,0,1,1.38.94l3,17a2.4,2.4,0,0,1,.08.72,5.68,5.68,0,0,1-.37,2.17l-2.56,5.86c-1.19,2.7-2.09,4.8-2.72,6.29C249.37,357.39,249.22,357.54,249,357.54Zm3.58,17a.93.93,0,0,1-.25-.69,2.47,2.47,0,0,1,.21-.94q1.59-4.33,5.18-14.14t6-16.81a2.64,2.64,0,0,1,.58-.94,1.6,1.6,0,0,1,1.16-.36h7.16a2.24,2.24,0,0,1,2.17,1.3q4.92,13.67,5.42,15.26c.24.62.41.94.51.94s.29-.34.43-1q.94-5.78,2.61-16.52t2.38-15.51a1.35,1.35,0,0,1,.47-.8,1.67,1.67,0,0,1,.91-.22h7.3a.7.7,0,0,1,.65.51,1.87,1.87,0,0,1,.08,1.16l-8.68,48.09a1.17,1.17,0,0,1-1.3.94h-7.82a1.89,1.89,0,0,1-.9-.18,1.12,1.12,0,0,1-.47-.76q-1-3-3.29-9.76t-3.44-10.56c0-.24-.13-.36-.25-.36s-.23.12-.32.36l-6.73,20.32c-.14.63-.6.94-1.37.94h-7.81A.83.83,0,0,1,252.61,374.57Z"/><path class="b5a21f92-d4f9-450a-bfd3-490ff8c6f221" d="M306.85,332.69a1.34,1.34,0,0,1-.4-1V325.5a1.22,1.22,0,0,1,.4-.94,1.33,1.33,0,0,1,.91-.36h33.55a1.35,1.35,0,0,1,1,.39,1.29,1.29,0,0,1,.4.91v6.22a1.39,1.39,0,0,1-.4.94,1.28,1.28,0,0,1-1,.43H307.76A1.25,1.25,0,0,1,306.85,332.69Zm0,41.73a1.25,1.25,0,0,1-.4-.9V340.11a1.22,1.22,0,0,1,.4-.94,1.34,1.34,0,0,1,.91-.37h6.14a1.25,1.25,0,0,1,1.3,1.31v5.2c0,.92.63,1.38,1.88,1.38h18.23a1.28,1.28,0,0,1,.87.32,1.08,1.08,0,0,1,.36.83v6.22a1.09,1.09,0,0,1-.36.84,1.28,1.28,0,0,1-.87.32H316.87c-1.11,0-1.67.51-1.67,1.52v7.88a1.52,1.52,0,0,0,1.38,1.38h24.88a1.28,1.28,0,0,1,.94.36,1.27,1.27,0,0,1,.36.94v6.22a1.29,1.29,0,0,1-.36.9,1.2,1.2,0,0,1-.94.4h-33.7A1.25,1.25,0,0,1,306.85,374.42Z"/><path class="b5a21f92-d4f9-450a-bfd3-490ff8c6f221" d="M380.22,374.5a1.61,1.61,0,0,1-.58-.76L376,360.28a2.23,2.23,0,0,0-.8-1.08,2,2,0,0,0-1.23-.43H363.08a1.12,1.12,0,0,1-.83-.33,1,1,0,0,1-.33-.76v-5.57a1.14,1.14,0,0,1,.33-.79,1.08,1.08,0,0,1,.83-.37h8.68a1.3,1.3,0,0,0,1.05-.47,1.11,1.11,0,0,0,.18-1.12l-4.05-14.75a1.84,1.84,0,0,0-.72-1,2,2,0,0,0-1.23-.44h-.51a1.94,1.94,0,0,0-1.16.44,1.84,1.84,0,0,0-.72,1l-2.68,9.69a1.09,1.09,0,0,1-.54.65,1.11,1.11,0,0,1-.9.07l-6.8-1.66a1,1,0,0,1-.69-.51,1,1,0,0,1-.11-.86l4.56-16.71a1.72,1.72,0,0,1,.61-.79,1.49,1.49,0,0,1,.91-.37h15.55a1.75,1.75,0,0,1,.94.33,1.55,1.55,0,0,1,.65.76l13.31,48.6V374a.77.77,0,0,1-.87.87h-7.38A1.57,1.57,0,0,1,380.22,374.5Z"/><path class="b5a21f92-d4f9-450a-bfd3-490ff8c6f221" d="M404.52,373.74V334.68a1.54,1.54,0,0,0-.51-1.19,1.73,1.73,0,0,0-1.23-.47h-4.12a.91.91,0,0,1-.65-.29,1,1,0,0,1-.29-.72v-6.73a1,1,0,0,1,.29-.72.91.91,0,0,1,.65-.29h31.61a.92.92,0,0,1,.65.29,1,1,0,0,1,.29.72V332a1,1,0,0,1-.29.72.92.92,0,0,1-.65.29H416.74a1.68,1.68,0,0,0-1.23.51,1.56,1.56,0,0,0-.5,1.15v39.06a.86.86,0,0,1-.29.68,1,1,0,0,1-.65.26h-8.61A.83.83,0,0,1,404.52,373.74Z"/><path class="b5a21f92-d4f9-450a-bfd3-490ff8c6f221" d="M443.32,358.51a1,1,0,0,1-.32-.76V325.21a1,1,0,0,1,.32-.76,1,1,0,0,1,.76-.33h7.52a1.13,1.13,0,0,1,1.09,1.09v32.54a1,1,0,0,1-.33.76,1,1,0,0,1-.76.33h-7.52A1,1,0,0,1,443.32,358.51Zm27,15.91a1.21,1.21,0,0,1-.4-.9V356.09a1.27,1.27,0,0,0-.36-.94,1.28,1.28,0,0,0-.94-.36h-9a1.25,1.25,0,0,1-.91-.4,1.26,1.26,0,0,1-.4-.9v-6.15a1.22,1.22,0,0,1,.4-.94,1.33,1.33,0,0,1,.91-.36h9a1.24,1.24,0,0,0,.94-.4,1.33,1.33,0,0,0,.36-.91v-19.3a1.37,1.37,0,0,1,1.3-1.31h7.38a1.26,1.26,0,0,1,.9.4,1.25,1.25,0,0,1,.4.91v48.09a1.29,1.29,0,0,1-.36.9,1.2,1.2,0,0,1-.94.4H471.2A1.21,1.21,0,0,1,470.3,374.42Z"/><path class="b5a21f92-d4f9-450a-bfd3-490ff8c6f221" d="M493.22,332.69a1.34,1.34,0,0,1-.4-1V325.5a1.22,1.22,0,0,1,.4-.94,1.32,1.32,0,0,1,.9-.36h33.56a1.35,1.35,0,0,1,1,.39,1.29,1.29,0,0,1,.4.91v6.22a1.39,1.39,0,0,1-.4.94,1.28,1.28,0,0,1-1,.43H494.12A1.24,1.24,0,0,1,493.22,332.69Zm0,41.73a1.25,1.25,0,0,1-.4-.9V340.11a1.22,1.22,0,0,1,.4-.94,1.33,1.33,0,0,1,.9-.37h6.15a1.25,1.25,0,0,1,1.3,1.31v5.2c0,.92.63,1.38,1.88,1.38h18.23a1.28,1.28,0,0,1,.87.32,1.08,1.08,0,0,1,.36.83v6.22a1.09,1.09,0,0,1-.36.84,1.28,1.28,0,0,1-.87.32H503.24c-1.11,0-1.67.51-1.67,1.52v7.88A1.52,1.52,0,0,0,503,366h24.88a1.3,1.3,0,0,1,.94.36,1.27,1.27,0,0,1,.36.94v6.22a1.29,1.29,0,0,1-.36.9,1.22,1.22,0,0,1-.94.4H494.12A1.24,1.24,0,0,1,493.22,374.42Z"/><path class="b5a21f92-d4f9-450a-bfd3-490ff8c6f221" d="M541.75,374.46a1.19,1.19,0,0,1-.4-.94V348.28a1.32,1.32,0,0,1,.4-1,1.34,1.34,0,0,1,1-.4h15a6.73,6.73,0,0,0,4.89-1.95,6.37,6.37,0,0,0,2-4.7,6.45,6.45,0,0,0-2-4.77,6.73,6.73,0,0,0-4.89-2h-6.07a1.82,1.82,0,0,0-1.34.54,1.73,1.73,0,0,0-.54,1.26v1.81a1.8,1.8,0,0,1-.51,1.27,1.69,1.69,0,0,1-1.3.54h-4.77a1.84,1.84,0,0,1-1.81-1.81V325.5a1.32,1.32,0,0,1,.4-1,1.34,1.34,0,0,1,1-.4h15a16.46,16.46,0,0,1,14.22,8,15.83,15.83,0,0,1,.5,15.19,16.1,16.1,0,0,1-4.66,5.57.85.85,0,0,0-.44.72,2.86,2.86,0,0,0,.08.72l8.38,18.73a1.88,1.88,0,0,1,.29.95c0,.53-.33.79-1,.79h-5.93a3.88,3.88,0,0,1-1.19-.14,1.34,1.34,0,0,1-.69-.73L559.72,357a1.17,1.17,0,0,0-.58-.58,4.89,4.89,0,0,0-1.45-.14h-6.14a2.85,2.85,0,0,0-1.34.25,1.09,1.09,0,0,0-.47,1.05v15.91a1.19,1.19,0,0,1-.4.94,1.39,1.39,0,0,1-1,.36h-5.64A1.39,1.39,0,0,1,541.75,374.46Z"/><path class="b5a21f92-d4f9-450a-bfd3-490ff8c6f221" d="M269.21,448.71a1.61,1.61,0,0,1-.58-.76L265,434.5a2.19,2.19,0,0,0-.79-1.09A2,2,0,0,0,263,433H252.07a1.1,1.1,0,0,1-.83-.33,1,1,0,0,1-.33-.76v-5.57a1.14,1.14,0,0,1,.33-.79,1.05,1.05,0,0,1,.83-.36h8.68a1.33,1.33,0,0,0,1.05-.47,1.12,1.12,0,0,0,.18-1.12l-4.05-14.76a1.85,1.85,0,0,0-.73-1,2,2,0,0,0-1.23-.44h-.5a1.94,1.94,0,0,0-1.16.44,1.78,1.78,0,0,0-.72,1l-2.68,9.69a1.13,1.13,0,0,1-.54.65,1.18,1.18,0,0,1-.91.08l-6.79-1.67a1,1,0,0,1-.69-.5,1,1,0,0,1-.11-.87l4.56-16.71a1.65,1.65,0,0,1,.61-.79,1.53,1.53,0,0,1,.91-.37h15.54a1.78,1.78,0,0,1,.95.33,1.55,1.55,0,0,1,.65.76l13.3,48.6v.14a.77.77,0,0,1-.86.87h-7.38A1.57,1.57,0,0,1,269.21,448.71Z"/><path class="b5a21f92-d4f9-450a-bfd3-490ff8c6f221" d="M289.06,448.63a1.21,1.21,0,0,1-.4-.9V422.49a1.34,1.34,0,0,1,.4-1,1.25,1.25,0,0,1,.9-.39h16a6.52,6.52,0,0,0,4.73-2,6.32,6.32,0,0,0,2-4.7,6.41,6.41,0,0,0-2-4.77,6.51,6.51,0,0,0-4.73-1.95H290a1.26,1.26,0,0,1-.9-.4,1.32,1.32,0,0,1-.4-1v-6.65a1.32,1.32,0,0,1,.4-1,1.26,1.26,0,0,1,.9-.4h16a15.57,15.57,0,0,1,8,2.17,16.17,16.17,0,0,1,5.86,5.9,15.7,15.7,0,0,1,2.17,8.06,15.51,15.51,0,0,1-2.17,8,16.22,16.22,0,0,1-5.86,5.86,15.57,15.57,0,0,1-8,2.17h-7.67a2,2,0,0,0-1.08.21,1,1,0,0,0-.29.87v16.13a1.22,1.22,0,0,1-.4.94,1.41,1.41,0,0,1-1,.36H290A1.23,1.23,0,0,1,289.06,448.63Z"/><path class="b5a21f92-d4f9-450a-bfd3-490ff8c6f221" d="M333.25,448.63a1.21,1.21,0,0,1-.4-.9V422.49a1.34,1.34,0,0,1,.4-1,1.24,1.24,0,0,1,.9-.39h16a6.54,6.54,0,0,0,4.74-2,6.32,6.32,0,0,0,2-4.7,6.41,6.41,0,0,0-2-4.77,6.53,6.53,0,0,0-4.74-1.95h-16a1.25,1.25,0,0,1-.9-.4,1.32,1.32,0,0,1-.4-1v-6.65a1.32,1.32,0,0,1,.4-1,1.25,1.25,0,0,1,.9-.4h16a15.61,15.61,0,0,1,8,2.17,16.25,16.25,0,0,1,5.86,5.9,15.7,15.7,0,0,1,2.17,8.06,15.51,15.51,0,0,1-2.17,8,16.3,16.3,0,0,1-5.86,5.86,15.61,15.61,0,0,1-8,2.17h-7.66a2,2,0,0,0-1.09.21,1.07,1.07,0,0,0-.29.87v16.13a1.21,1.21,0,0,1-.39.94,1.41,1.41,0,0,1-1,.36h-5.57A1.21,1.21,0,0,1,333.25,448.63Z"/><polyline class="b4b444fe-8462-4a38-b6c1-a595ce961acd" points="213.75 257.52 257.28 210.46 267.87 186.93 309.88 170.46 323.17 144.58 354.92 124.58 364.41 128.3 382.69 124.58 392.67 127.44 426.04 153.43 439.18 174.22 482.52 214.08 604.49 262.6"/></svg>